<?xml version="1.0" encoding="iso-8859-1"?>
<!-- Generator: Adobe Illustrator 19.0.0, SVG Export Plug-In . SVG Version: 6.00 Build 0)  -->
<svg version="1.1" id="Layer_1" xmlns="http://www.w3.org/2000/svg" xmlns:xlink="http://www.w3.org/1999/xlink" x="0px" y="0px"
	 viewBox="0 0 496 496" style="enable-background:new 0 0 496 496;" xml:space="preserve">
<g>
	<g>
		<path d="M476.448,480c-2.592-4.296-7.248-12.424-12.912-24H472v-16h-15.864c-5.84-13.32-12.112-29.44-17.936-48H456v-16h-22.512
			c-4.08-14.76-7.744-30.816-10.672-48H440v-16h-19.64c-0.712-5.24-1.344-10.576-1.896-16H432v-16h-14.872
			c-0.576-8.528-0.936-17.256-1.048-26.168C430.52,243.696,440,226.944,440,208c0-30.88-25.12-56-56-56s-56,25.12-56,56
			c0,18.936,9.472,35.68,23.904,45.824c-0.112,8.92-0.44,17.664-1.008,26.176H336v16h13.544c-0.544,5.432-1.184,10.76-1.888,16H328
			v16h17.232c-2.912,17.216-6.568,33.256-10.632,48H312v16h17.92c-1.744,5.576-3.536,10.88-5.336,16h-9.056
			c-5.032-14.288-9.92-30.36-14.16-48H328v-16h-30.208c-5.424-26.456-9.136-56.016-9.68-88H312v-16h-23.88
			c0.104-5.456,0.288-10.816,0.6-16H304v-16h-13.936c11.328-108.624,66.248-153.208,66.848-153.68l-9.824-12.64
			c-0.696,0.544-4.992,3.992-11.176,10.664C327.192,44.448,316.008,40,304,40c-7.12,0-14.12,1.6-20.544,4.672
			c-4.488-3.696-9.52-6.504-14.824-8.616C270.72,32.496,272,28.416,272,24c0-13.232-10.768-24-24-24s-24,10.768-24,24
			c0,4.416,1.28,8.496,3.368,12.056c-5.304,2.112-10.336,4.92-14.824,8.616C206.12,41.6,199.12,40,192,40
			c-12.008,0-23.192,4.448-31.912,12.344c-6.184-6.672-10.48-10.12-11.176-10.664l-9.84,12.616
			c0.616,0.488,55.536,45.072,66.864,153.696H192v16h15.272c0.312,5.184,0.496,10.544,0.6,16H184v16h23.888
			c-0.544,31.984-4.256,61.544-9.68,88H168v16h26.632c-4.24,17.64-9.128,33.712-14.16,48h-9.056c-1.8-5.12-3.592-10.424-5.336-16
			H184v-16h-22.6c-4.064-14.744-7.72-30.784-10.632-48H168v-16h-19.656c-0.704-5.24-1.344-10.568-1.888-16H160v-16h-14.896
			c-0.568-8.52-0.896-17.264-1.008-26.176C158.528,243.68,168,226.936,168,208c0-30.88-25.12-56-56-56s-56,25.12-56,56
			c0,18.944,9.48,35.696,23.92,45.832c-0.112,8.92-0.464,17.64-1.048,26.168H64v16h13.536c-0.552,5.424-1.184,10.76-1.896,16H56v16
			h17.184c-2.928,17.184-6.592,33.24-10.672,48H40v16h17.8c-5.824,18.56-12.096,34.68-17.936,48H24v16h8.464
			c-5.664,11.576-10.32,19.704-12.912,24H0v16h496v-16H476.448z M344,208c0-22.056,17.944-40,40-40c22.056,0,40,17.944,40,40
			c0,22.056-17.944,40-40,40C361.944,248,344,230.056,344,208z M402.336,296c0.52,5.416,1.096,10.768,1.768,16h-40.312
			c0.688-5.248,1.312-10.568,1.84-16H402.336z M366.944,280c0.392-6.04,0.672-12.184,0.84-18.416C372.92,263.144,378.36,264,384,264
			c5.632,0,11.056-0.856,16.184-2.408c0.168,6.248,0.488,12.36,0.88,18.408H366.944z M361.44,328h45.024
			c2.776,17.144,6.28,33.184,10.208,48h-65.496C355.12,361.184,358.64,345.128,361.44,328z M335.776,424H344v-16h-2.48
			c1.736-5.12,3.44-10.472,5.112-16h74.584c5.504,18.264,11.496,34.36,17.248,48h-109.08
			C331.496,434.992,333.632,429.672,335.776,424z M248,16c4.408,0,8,3.592,8,8s-3.592,8-8,8c-4.408,0-8-3.592-8-8S243.592,16,248,16
			z M204.464,128c-10.432-28.592-23.28-49.344-34.016-63.336C176.312,59.176,183.848,56,192,56c6.12,0,12.112,1.792,17.336,5.176
			l5.496,3.56l4.576-4.68C227.008,52.28,237.168,48,248,48c10.832,0,20.992,4.28,28.592,12.056l4.576,4.68l5.496-3.56
			C291.888,57.792,297.88,56,304,56c8.152,0,15.688,3.176,21.552,8.664C314.816,78.648,301.968,99.4,291.536,128H204.464z
			 M223.896,256h48.216c0.512,31.992,4.024,61.488,9.216,88H214.68C219.864,317.488,223.376,287.992,223.896,256z M223.304,224h49.4
			c-0.296,5.2-0.472,10.544-0.576,16H223.88C223.776,234.544,223.6,229.2,223.304,224z M273.912,208h-51.824
			c-2.368-24.256-6.784-45.52-12.32-64h76.464C280.688,162.48,276.28,183.744,273.912,208z M211.28,360h73.448
			c4.032,17.536,8.712,33.584,13.6,48H197.68C202.568,393.584,207.248,377.536,211.28,360z M72,208c0-22.056,17.944-40,40-40
			c22.056,0,40,17.944,40,40c0,22.056-17.944,40-40,40C89.944,248,72,230.056,72,208z M130.36,296
			c0.528,5.432,1.152,10.752,1.832,16H91.88c0.68-5.232,1.256-10.584,1.776-16H130.36z M94.936,280
			c0.384-6.048,0.712-12.16,0.88-18.408C100.944,263.144,106.368,264,112,264c5.64,0,11.08-0.856,16.216-2.416
			c0.168,6.232,0.448,12.376,0.84,18.416H94.936z M89.528,328h45.024c2.8,17.128,6.32,33.184,10.264,48H79.32
			C83.248,361.184,86.752,345.144,89.528,328z M74.792,392h74.584c1.672,5.528,3.376,10.88,5.112,16H152v16h8.224
			c2.144,5.672,4.288,10.992,6.392,16H57.536C63.296,426.36,69.28,410.264,74.792,392z M147.552,480H38.12
			c3.368-5.984,7.616-14.04,12.296-24h110.048C154.8,467.576,150.144,475.704,147.552,480z M166.12,480
			c6.448-11.472,16.16-30.512,25.824-56h112.112c9.664,25.488,19.376,44.528,25.824,56H166.12z M348.448,480
			c-2.592-4.296-7.248-12.424-12.912-24h110.048c4.68,9.96,8.928,18.016,12.296,24H348.448z"/>
	</g>
</g>
<g>
</g>
<g>
</g>
<g>
</g>
<g>
</g>
<g>
</g>
<g>
</g>
<g>
</g>
<g>
</g>
<g>
</g>
<g>
</g>
<g>
</g>
<g>
</g>
<g>
</g>
<g>
</g>
<g>
</g>
</svg>
