<?xml version="1.0" encoding="iso-8859-1"?>
<!-- Generator: Adobe Illustrator 18.0.0, SVG Export Plug-In . SVG Version: 6.00 Build 0)  -->
<!DOCTYPE svg PUBLIC "-//W3C//DTD SVG 1.1//EN" "http://www.w3.org/Graphics/SVG/1.1/DTD/svg11.dtd">
<svg version="1.1" id="Capa_1" xmlns="http://www.w3.org/2000/svg" xmlns:xlink="http://www.w3.org/1999/xlink" x="0px" y="0px"
	 viewBox="0 0 280.424 280.424" style="enable-background:new 0 0 280.424 280.424;" xml:space="preserve">
<g>
	<g>
		<polygon style="fill:#AFDC02;" points="245.004,33.72 244.152,37.616 201.486,64.207 233.928,89.524 		"/>
		<polygon style="fill:#58D2D4;" points="218.914,36.264 183.609,41.222 188.333,53.714 225.851,32.318 		"/>
		<g>
			<path style="fill:#FDBD1D;" d="M41.161,169.77c0.082,1.174,0.164,2.347,0.286,3.51C41.324,172.118,41.243,170.944,41.161,169.77z
				"/>
			<path style="fill:#FDBD1D;" d="M66.78,229.79c2.268,2.504,4.662,4.89,7.17,7.154C71.442,234.68,69.048,232.293,66.78,229.79z"/>
			<path style="fill:#FDBD1D;" d="M44.289,188.558c-0.254-0.949-0.484-1.908-0.711-2.868
				C43.805,186.65,44.035,187.608,44.289,188.558z"/>
			<path style="fill:#FDBD1D;" d="M47.444,198.28c-0.346-0.906-0.676-1.82-0.996-2.738C46.767,196.461,47.098,197.374,47.444,198.28
				z"/>
			<path style="fill:#FDBD1D;" d="M45.743,193.466c-0.299-0.923-0.578-1.854-0.851-2.789
				C45.165,191.612,45.444,192.543,45.743,193.466z"/>
			<path style="fill:#FDBD1D;" d="M40.883,162.706c0,1.785,0.052,3.559,0.144,5.322C40.935,166.265,40.883,164.491,40.883,162.706z"
				/>
			<path style="fill:#FDBD1D;" d="M42.514,180.579c0.18,0.995,0.36,1.989,0.57,2.974C42.875,182.568,42.695,181.574,42.514,180.579z
				"/>
			<path style="fill:#FDBD1D;" d="M41.706,175.318c0.133,1.05,0.263,2.1,0.428,3.14C41.969,177.418,41.839,176.368,41.706,175.318z"
				/>
			<path style="fill:#FDBD1D;" d="M239.732,147.295c0.072,0.46,0.133,0.921,0.199,1.382
				C239.865,148.216,239.804,147.755,239.732,147.295z"/>
			<path style="fill:#FDBD1D;" d="M59.53,220.758c-0.651-0.91-1.298-1.822-1.918-2.754C58.232,218.936,58.879,219.849,59.53,220.758
				z"/>
			<path style="fill:#FDBD1D;" d="M49.381,202.984c-0.394-0.892-0.777-1.791-1.145-2.697
				C48.605,201.194,48.987,202.092,49.381,202.984z"/>
			<path style="fill:#FDBD1D;" d="M66.759,229.765c-1.106-1.222-2.18-2.473-3.225-3.748
				C64.579,227.293,65.653,228.543,66.759,229.765z"/>
			<path style="fill:#FDBD1D;" d="M240.138,152.161H50.331c-1.32,5-1.987,12.278-1.987,18.92c0,25.67,9.724,48.651,25.675,66.38
				c17.735,15.984,41.195,25.504,66.894,25.504c55.155,0,100.027-44.073,100.027-99.229
				C240.94,159.604,240.651,152.161,240.138,152.161z M87.211,202.66c-12.253,0-22.222-9.967-22.222-22.219
				c0-12.254,9.969-22.223,22.222-22.223c12.252,0,22.219,9.969,22.219,22.223C109.431,192.693,99.463,202.66,87.211,202.66z
				 M204.065,230.347c-14.28,13.457-28.772,18.75-29.383,18.969c-0.582,0.209-1.177,0.308-1.762,0.308
				c-2.143,0-4.151-1.328-4.916-3.46c-0.973-2.712,0.435-5.698,3.144-6.675c0.132-0.048,13.342-4.93,26.048-17.02
				c16.777-15.964,24.871-36.438,24.058-60.854c-0.096-2.882,2.163-5.296,5.045-5.393c2.886-0.084,5.297,2.163,5.393,5.045
				C232.841,195.762,217.302,217.873,204.065,230.347z"/>
			<path style="fill:#FDBD1D;" d="M62.782,225.062c-0.783-0.98-1.56-1.966-2.307-2.975
				C61.223,223.097,61.999,224.082,62.782,225.062z"/>
			<path style="fill:#FDBD1D;" d="M51.556,207.581c-0.445-0.882-0.881-1.769-1.3-2.666
				C50.675,205.812,51.111,206.699,51.556,207.581z"/>
			<path style="fill:#FDBD1D;" d="M56.619,216.457c-0.568-0.886-1.131-1.776-1.67-2.681
				C55.488,214.681,56.051,215.571,56.619,216.457z"/>
			<path style="fill:#FDBD1D;" d="M53.968,212.073c-0.502-0.88-0.998-1.765-1.473-2.661
				C52.97,210.309,53.466,211.193,53.968,212.073z"/>
		</g>
		<path style="fill:#B74B00;" d="M87.211,158.218c-12.253,0-22.222,9.969-22.222,22.223c0,12.252,9.969,22.219,22.222,22.219
			c12.252,0,22.219-9.967,22.219-22.219C109.43,168.187,99.463,158.218,87.211,158.218z M87.211,192.216
			c-6.495,0-11.778-5.282-11.778-11.774c0-6.495,5.283-11.779,11.778-11.779c6.492,0,11.775,5.284,11.775,11.779
			C98.986,186.934,93.704,192.216,87.211,192.216z"/>
		<path style="fill:#B74B00;" d="M50.804,47.32c-1.585-2.408-4.822-3.078-7.233-1.494L2.353,72.935
			c-2.409,1.585-3.078,4.823-1.494,7.233c1.003,1.526,2.669,2.353,4.368,2.353c0.984,0,1.98-0.278,2.865-0.859L49.31,54.552
			C51.719,52.968,52.388,49.73,50.804,47.32z"/>
		<path style="fill:#B74B00;" d="M59.653,57.052c2.884,0,5.222-2.338,5.222-5.222v-6.871c0-2.884-2.338-5.222-5.222-5.222
			c-2.884,0-5.222,2.338-5.222,5.222v6.871C54.431,54.714,56.769,57.052,59.653,57.052z"/>
		<path style="fill:#B74B00;" d="M226.298,156.223c-2.882,0.096-5.141,2.511-5.045,5.393c0.814,24.416-7.281,44.89-24.058,60.854
			c-12.706,12.09-25.916,16.972-26.048,17.02c-2.709,0.977-4.116,3.963-3.144,6.675c0.764,2.133,2.773,3.46,4.916,3.46
			c0.585,0,1.18-0.099,1.762-0.307c0.611-0.219,15.103-5.512,29.383-18.969c13.237-12.475,28.776-34.586,27.627-69.08
			C231.595,158.386,229.184,156.139,226.298,156.223z"/>
		<polygon style="fill:none;" points="174.127,36.914 182.291,57.16 225.851,32.318 		"/>
		<path style="fill:none;" d="M40.883,162.706c0,55.156,44.873,100.03,100.03,100.03c55.155,0,100.027-44.874,100.027-100.03
			c0-6.642-0.667-13.296-1.987-19.834H42.871C41.551,149.41,40.883,156.064,40.883,162.706z"/>
		<polygon style="fill:none;" points="252.967,48.836 252.868,49.322 253.391,50.202 		"/>
		<polygon style="fill:none;" points="189.217,65.258 232.352,97.465 245.004,33.72 		"/>
		<polygon style="fill:none;" points="249.799,92.579 266.061,91.03 268.31,98.276 255.279,56.286 		"/>
		<g>
			<polygon style="fill:#58D2D4;" points="254.3,53.131 255.279,56.286 249.799,92.579 266.061,91.03 268.31,98.276 253.695,51.182 
							"/>
			<polygon style="fill:#58D2D4;" points="253.391,50.201 252.967,48.836 252.868,49.322 			"/>
		</g>
		<path style="fill:#B74B00;" d="M280.189,101.317c0,0-23.607-76.004-23.599-76.306l6.86-9.539c1.66-2.358,1.093-5.616-1.265-7.276
			c-2.359-1.66-5.616-1.094-7.276,1.264l-7.351,10.443l-81.371,7.232c-1.647,0.146-3.128,1.064-3.991,2.474
			c-0.863,1.411-1.008,3.147-0.39,4.681l13.034,32.322c0.019,0.046,0.043,0.089,0.064,0.135c0.032,0.074,0.067,0.148,0.103,0.221
			c0.055,0.11,0.113,0.217,0.174,0.323c0.041,0.069,0.081,0.138,0.125,0.206c0.069,0.107,0.144,0.21,0.221,0.311
			c0.044,0.06,0.087,0.12,0.134,0.177c0.101,0.122,0.209,0.237,0.321,0.35c0.03,0.031,0.057,0.064,0.089,0.095
			c0.145,0.139,0.299,0.269,0.46,0.391c0.01,0.007,0.018,0.015,0.027,0.023l23.958,17.889l-32.165,45.696h-62.789L78.371,48.579
			c-0.89-2.744-3.834-4.247-6.578-3.356c-2.744,0.89-4.247,3.835-3.356,6.578l26.148,80.627H38.686
			c-2.406,0-4.502,1.644-5.073,3.982c-2.106,8.619-3.174,17.466-3.174,26.296c0,60.915,49.558,110.474,110.474,110.474
			c60.914,0,110.471-49.559,110.471-110.474c0-8.83-1.068-17.677-3.174-26.296c-0.571-2.338-2.667-3.982-5.073-3.982h-62.012
			l27.765-39.445l23.857,17.813c0.009,0.006,0.019,0.011,0.028,0.017c0.2,0.147,0.411,0.277,0.628,0.393
			c0.05,0.027,0.101,0.052,0.152,0.077c0.209,0.103,0.422,0.196,0.644,0.271c0.016,0.006,0.032,0.013,0.049,0.019
			c0.232,0.076,0.471,0.13,0.713,0.173c0.058,0.01,0.115,0.019,0.173,0.027c0.243,0.035,0.488,0.059,0.737,0.059h0.001h0.001
			c0.162,0,0.323-0.008,0.485-0.023c0.004,0,0.006,0,0.01,0l39.33-3.746c1.565-0.149,2.98-0.995,3.851-2.304
			C280.419,104.451,280.656,102.819,280.189,101.317z M238.952,142.872c1.32,6.539,1.987,13.192,1.987,19.834
			c0,55.156-44.872,100.03-100.027,100.03c-55.157,0-100.03-44.874-100.03-100.03c0-6.642,0.667-13.296,1.987-19.834H238.952z
			 M174.127,36.914l51.724-4.596l-43.56,24.842L174.127,36.914z M232.352,97.465l-43.135-32.207l55.788-31.538L232.352,97.465z
			 M242.396,100.744l10.472-51.422l0.099-0.485l0.424,1.365l0.909,2.93l0.979,3.155l13.031,41.99L242.396,100.744z"/>
	</g>
</g>
<g>
</g>
<g>
</g>
<g>
</g>
<g>
</g>
<g>
</g>
<g>
</g>
<g>
</g>
<g>
</g>
<g>
</g>
<g>
</g>
<g>
</g>
<g>
</g>
<g>
</g>
<g>
</g>
<g>
</g>
</svg>
