<?xml version="1.0" encoding="iso-8859-1"?>
<!-- Generator: Adobe Illustrator 19.0.0, SVG Export Plug-In . SVG Version: 6.00 Build 0)  -->
<svg version="1.1" id="Layer_1" xmlns="http://www.w3.org/2000/svg" xmlns:xlink="http://www.w3.org/1999/xlink" x="0px" y="0px"
	 viewBox="0 0 512 512" style="enable-background:new 0 0 512 512;" xml:space="preserve">
<path style="fill:#FFFFFF;" d="M4,462.376v-348.76h504v303.832c-0.024,24.8-20.12,44.896-44.92,44.928H4z"/>
<path style="fill:#CCCCCC;" d="M504,117.624v299.824c-0.024,22.592-18.328,40.896-40.92,40.92H8V117.624H504 M512,109.624H0v356.752
	h463.08c27.016,0,48.92-21.904,48.92-48.92v-0.008V109.624z"/>
<path style="fill:#E21B1B;" d="M31.92,45.624h448.16c17.632,0,31.92,14.288,31.92,31.92l0,0v32.184H0V77.544
	C0,59.912,14.288,45.624,31.92,45.624L31.92,45.624z"/>
<g>
	<circle style="fill:#FFFFFF;" cx="44.192" cy="77.672" r="8.928"/>
	<circle style="fill:#FFFFFF;" cx="70.968" cy="77.672" r="8.928"/>
	<circle style="fill:#FFFFFF;" cx="97.736" cy="77.672" r="8.928"/>
	<polygon style="fill:#FFFFFF;" points="460.928,93.352 143.088,93.352 159.088,62.008 460.928,62.008 	"/>
</g>
<g>
	<path style="fill:#999999;" d="M171.92,71.4l1.312,5.696c0.28,1.336,0.56,2.704,0.8,4.072h0.048
		c0.256-1.368,0.672-2.76,1.032-4.048l1.6-5.72h2.576l1.6,5.6c0.384,1.464,0.72,2.832,1,4.192h0.056
		c0.2-1.368,0.496-2.736,0.8-4.192l1.392-5.6h3.112l-3.936,12.544h-2.936l-1.496-5.104c-0.384-1.312-0.704-2.648-0.952-4h-0.056
		c-0.232,1.352-0.552,2.688-0.952,4l-1.6,5.104h-2.96L168.648,71.4H171.92z"/>
	<path style="fill:#999999;" d="M192.272,71.4l1.312,5.696c0.28,1.336,0.56,2.704,0.8,4.072h0.016
		c0.248-1.368,0.664-2.76,1.024-4.048l1.6-5.72h2.576l1.6,5.6c0.384,1.464,0.72,2.832,1,4.192h0.056
		c0.2-1.368,0.496-2.736,0.8-4.192l1.392-5.6h3.12l-3.944,12.544h-2.936l-1.496-5.104c-0.384-1.312-0.704-2.648-0.952-4l0,0
		c-0.232,1.352-0.552,2.688-0.952,4l-1.6,5.104h-2.96L189.016,71.4H192.272z"/>
	<path style="fill:#999999;" d="M212.624,71.4l1.312,5.696c0.28,1.336,0.56,2.704,0.8,4.072h0.048
		c0.256-1.368,0.672-2.76,1.032-4.048l1.6-5.72H220l1.6,5.6c0.384,1.464,0.72,2.832,1,4.192h0.056c0.2-1.368,0.496-2.736,0.8-4.192
		l1.392-5.6H228l-4,12.544h-2.936l-1.464-5.096c-0.384-1.312-0.704-2.648-0.952-4h-0.056c-0.232,1.352-0.552,2.688-0.952,4
		l-1.6,5.104h-2.96l-3.712-12.544L212.624,71.4z"/>
	<path style="fill:#999999;" d="M229.136,82.2c-0.056-1.064,0.76-1.976,1.832-2.04c0.04,0,0.088,0,0.128,0
		c1.128,0.072,1.976,1.04,1.912,2.16c-0.064,1.024-0.88,1.84-1.912,1.912c-1.064,0.016-1.944-0.832-1.96-1.896
		C229.136,82.296,229.136,82.248,229.136,82.2z"/>
</g>
<rect x="422.824" y="75.672" width="21.56" height="4"/>
<polygon points="438.24,88.592 435.416,85.76 443.504,77.672 435.416,69.592 438.24,66.76 449.16,77.672 "/>
<path d="M132.648,168.28h289.8l0,0v71.648c0,23.808-19.296,43.104-43.104,43.104l0,0H89.552l0,0v-71.648
	C89.552,187.584,108.848,168.288,132.648,168.28z"/>
<g>
	<path style="fill:#FFFFFF;" d="M180.648,257.064L178.4,198.24h12.64l0.088,26.184c-0.088,7.072-0.168,13.792-0.352,19.024h0.176
		c2.008-5.76,4.184-11.696,6.888-18.848l10.56-26.36h13.792l-0.168,26.272c-0.088,7.072-0.264,12.912-0.52,18.68h0.168
		c2.008-6.112,4.184-12.488,6.464-18.768l10.208-26.184h13.176l-25.92,58.824h-13.704l-0.44-24.176c0-6.888,0.168-12.8,0.52-19.464
		h-0.168c-2.184,6.288-4.192,12.568-7.16,19.816l-10.04,23.832L180.648,257.064z"/>
	<path style="fill:#FFFFFF;" d="M285.64,232.104h-20.952l-2.704,14.224h23.48l-2.008,10.736h-36.048l11.2-58.832h34.832
		l-2.096,10.744h-22.2l-2.448,12.56h20.952L285.64,232.104z"/>
	<path style="fill:#FFFFFF;" d="M303.44,199.2c5.096-0.928,10.264-1.392,15.448-1.392c5.056-0.336,10.104,0.76,14.576,3.144
		c4.152,1.96,6.8,6.144,6.808,10.736c-0.256,6.832-5.16,12.608-11.864,13.96v0.264c5.68,1.6,9.512,6.904,9.248,12.8
		c-0.048,5.728-3.08,11.016-8,13.96c-6.784,3.656-14.48,5.296-22.168,4.72c-4.968,0.104-9.936-0.248-14.84-1.048L303.44,199.2z
		 M306.584,247.376c1.592,0.184,3.2,0.264,4.8,0.256c6.816,0,13.008-2.704,13.008-9.248c0-5.84-4.888-7.592-10.736-7.592h-3.928
		L306.584,247.376z M311.648,221.624h4.184c6.896,0,11.608-2.96,11.608-7.936c0-4.28-3.496-6.112-8.288-6.112
		c-1.64-0.048-3.28,0.104-4.888,0.44L311.648,221.624z"/>
</g>
<rect x="291.972" y="338.657" transform="matrix(0.7071 -0.7071 0.7071 0.7071 -174.1322 326.4482)" style="fill:#999999;" width="30.04" height="69.527"/>
<polygon points="249.608,380.888 235.872,303.64 313.12,317.368 "/>
<g>
</g>
<g>
</g>
<g>
</g>
<g>
</g>
<g>
</g>
<g>
</g>
<g>
</g>
<g>
</g>
<g>
</g>
<g>
</g>
<g>
</g>
<g>
</g>
<g>
</g>
<g>
</g>
<g>
</g>
</svg>
